<svg width="206" height="213" viewBox="0 0 206 213" fill="none" xmlns="http://www.w3.org/2000/svg">
<path d="M11 143.5C7.68629 143.5 4.96332 146.196 5.36224 149.485C6.2203 156.561 8.59631 163.513 12.4217 170.096C17.3216 178.529 24.5034 186.19 33.5571 192.644C42.6108 199.098 53.3591 204.217 65.1884 207.71C77.0176 211.202 89.6961 213 102.5 213C115.304 213 127.982 211.202 139.812 207.71C151.641 204.217 162.389 199.098 171.443 192.644C180.497 186.19 187.678 178.529 192.578 170.096C196.404 163.513 198.78 156.561 199.638 149.485C200.037 146.196 197.314 143.5 194 143.5L102.5 143.5H11Z" fill="#14B8A6"/>
<rect y="117" width="206" height="17" rx="6" fill="#14B8A6"/>
<path d="M38.7085 16.0265C35.9255 8.21324 41.7187 0 50.0128 0H52.1628C57.8377 0 62.7367 3.97525 63.9055 9.52844L82.477 97.7642C83.2619 101.493 80.4166 105 76.6057 105H74.6321C72.0946 105 69.8314 103.404 68.98 101.013L38.7085 16.0265Z" fill="#14B8A6"/>
<path d="M119.888 21.5421C120.474 17.5677 117.394 14 113.376 14V14C110.063 14 107.265 16.4637 106.847 19.751L96.8302 98.4753C96.3897 101.937 99.0874 105 102.577 105V105C105.45 105 107.89 102.894 108.309 100.052L119.888 21.5421Z" fill="#14B8A6"/>
<path d="M169.023 35.1185C170.468 31.1771 167.551 27 163.353 27V27C160.753 27 158.446 28.6634 157.623 31.1296L135.188 98.4374C134.111 101.666 136.514 105 139.918 105V105C142.009 105 143.879 103.694 144.599 101.73L169.023 35.1185Z" fill="#14B8A6"/>
</svg>
